
<!-- Generator: visioncortex VTracer 0.6.4 -->
<svg version="1.1" xmlns="http://www.w3.org/2000/svg" viewBox="0 0 820 208" preserveAspectRatio="xMidYMid meet">
<path d="M0 0 C6.329 3.773 9.482 9.646 11.562 16.5 C11.934 18.501 12.252 20.513 12.524 22.53 C12.684 23.699 12.844 24.867 13.009 26.071 C13.173 27.321 13.338 28.571 13.508 29.859 C13.77 31.809 13.77 31.809 14.037 33.797 C14.406 36.544 14.77 39.291 15.131 42.038 C15.591 45.533 16.062 49.027 16.537 52.52 C16.992 55.883 17.437 59.246 17.883 62.609 C18.052 63.851 18.22 65.093 18.394 66.373 C19.935 78.214 20.81 88.031 14.75 98.688 C13.046 100.879 11.389 102.739 9.426 104.676 C8.889 105.207 8.352 105.739 7.798 106.286 C7.186 106.887 7.186 106.887 6.562 107.5 C10.186 109.086 13.812 110.668 17.438 112.25 C18.451 112.693 19.464 113.137 20.508 113.594 C23.521 114.907 26.54 116.208 29.562 117.5 C30.504 117.903 31.445 118.306 32.416 118.721 C33.294 119.086 34.173 119.452 35.078 119.828 C35.852 120.152 36.626 120.476 37.423 120.81 C40.8 121.899 43.226 121.568 46.562 120.5 C49.146 119.083 49.146 119.083 50.562 116.5 C51.248 112.388 51.248 112.388 50.562 108.5 C46.503 103.738 41.381 100.109 36.438 96.312 C35.221 95.37 35.221 95.37 33.98 94.408 C30.885 92.016 27.819 89.671 24.562 87.5 C24.341 84.711 24.281 82.153 24.375 79.375 C24.395 78.244 24.395 78.244 24.416 77.09 C24.451 75.226 24.505 73.363 24.562 71.5 C27.24 72.77 29.596 74.151 31.961 75.934 C32.917 76.651 32.917 76.651 33.893 77.384 C34.568 77.897 35.242 78.409 35.938 78.938 C36.639 79.47 37.34 80.002 38.062 80.55 C39.514 81.654 40.965 82.761 42.416 83.869 C44.449 85.414 46.498 86.937 48.551 88.457 C62.22 98.687 62.22 98.687 64.168 107.121 C65.241 114.782 63.78 120.597 60 127.25 C53.862 132.916 47.772 135.014 39.492 134.823 C34.488 134.271 30.21 132.437 25.625 130.438 C24.589 130.004 23.553 129.57 22.485 129.123 C20.159 128.147 17.837 127.164 15.518 126.174 C11.076 124.285 6.608 122.462 2.141 120.637 C-0.306 119.633 -2.753 118.628 -5.199 117.622 C-6.807 116.961 -8.416 116.302 -10.025 115.643 C-12.305 114.709 -14.581 113.766 -16.855 112.82 C-17.533 112.545 -18.21 112.269 -18.908 111.985 C-27.689 108.309 -35.287 102.732 -39.312 93.875 C-40.361 90.729 -41.037 87.787 -41.438 84.5 C-59.024 94.967 -59.024 94.967 -72.438 109.5 C-72.846 113.174 -72.686 115.053 -70.875 118.312 C-67.683 121.177 -65.686 121.257 -61.438 121.5 C-58.184 120.635 -58.184 120.635 -55.023 119.121 C-53.85 118.613 -52.677 118.104 -51.469 117.58 C-49.633 116.759 -47.799 115.931 -45.966 115.104 C-44.179 114.304 -42.382 113.525 -40.586 112.746 C-39.526 112.268 -38.465 111.791 -37.373 111.299 C-33.859 110.343 -32.594 110.812 -29.438 112.5 C-28.554 112.925 -27.671 113.351 -26.762 113.789 C-25.457 114.45 -25.457 114.45 -24.125 115.125 C-23.242 115.571 -22.359 116.017 -21.449 116.477 C-20.785 116.814 -20.121 117.152 -19.438 117.5 C-21.11 120.844 -24.856 121.596 -28.172 122.977 C-28.961 123.307 -29.75 123.637 -30.563 123.977 C-32.243 124.675 -33.924 125.369 -35.607 126.06 C-38.145 127.107 -40.667 128.186 -43.191 129.266 C-52.143 133.003 -60.548 136.381 -70.438 134.5 C-76.779 131.847 -81.289 128.66 -84.438 122.5 C-86.425 116.538 -86.621 109.074 -84.637 103.082 C-79.144 93.626 -68.686 87.263 -60.127 80.782 C-57.386 78.702 -54.663 76.6 -51.938 74.5 C-50.859 73.672 -49.781 72.844 -48.703 72.016 C-46.478 70.305 -44.26 68.585 -42.047 66.859 C-20.011 49.71 -20.011 49.71 -4.438 51.5 C-1.702 52.374 0.9 53.411 3.562 54.5 C2.939 50.416 2.313 46.333 1.688 42.25 C1.426 40.541 1.426 40.541 1.16 38.797 C0.808 36.501 0.45 34.206 0.087 31.912 C-0.261 29.647 -0.583 27.377 -0.876 25.104 C-1.023 24.043 -1.169 22.983 -1.32 21.891 C-1.44 20.947 -1.56 20.004 -1.684 19.032 C-2.622 15.88 -3.893 14.547 -6.438 12.5 C-10.513 11.314 -12.466 10.982 -16.25 13 C-21.745 19.279 -21.39 29.373 -22.293 37.314 C-22.413 38.308 -22.533 39.301 -22.656 40.324 C-22.759 41.222 -22.861 42.12 -22.967 43.046 C-23.693 46.83 -24.604 48.899 -27.75 51.168 C-28.637 51.669 -29.524 52.171 -30.438 52.688 C-31.324 53.197 -32.211 53.706 -33.125 54.23 C-34.549 55.012 -35.985 55.774 -37.438 56.5 C-37.535 50.979 -37.223 45.736 -36.449 40.273 C-36.345 39.522 -36.241 38.771 -36.134 37.997 C-35.915 36.422 -35.692 34.847 -35.466 33.272 C-35.125 30.876 -34.801 28.477 -34.479 26.078 C-34.261 24.539 -34.043 23 -33.824 21.461 C-33.683 20.397 -33.683 20.397 -33.54 19.311 C-32.226 10.44 -28.4 5.555 -21.438 0.188 C-15.169 -3.173 -6.433 -2.771 0 0 Z M-25.438 70.5 C-28.953 75.591 -29.131 80.518 -28.438 86.5 C-26.657 91.945 -23.049 95.282 -18.438 98.5 C-13.308 100.21 -8.376 100.146 -3.25 98.438 C0.855 95.61 4.318 91.99 6.562 87.5 C7.285 80.354 7.032 75.23 2.562 69.5 C-1.501 65.457 -5.513 63.704 -11.234 63.363 C-16.863 63.713 -21.485 66.657 -25.438 70.5 Z " fill="#1D6BE2" transform="translate(131.4375,37.5)"/>
<path d="M0 0 C0.703 0.004 1.405 0.008 2.129 0.012 C2.831 0.008 3.534 0.004 4.258 0 C9.502 0.01 9.502 0.01 10.629 1.137 C10.752 4.179 10.815 7.202 10.84 10.246 C10.868 12.134 10.897 14.022 10.926 15.91 C10.967 18.897 11.004 21.883 11.03 24.87 C11.058 27.746 11.104 30.621 11.152 33.496 C11.156 34.386 11.159 35.276 11.162 36.192 C11.257 40.983 11.517 44.246 14.629 48.137 C17.844 50.465 20.737 50.534 24.629 50.137 C28.434 48.407 30.065 46.968 31.629 43.137 C31.944 41.096 31.944 41.096 31.932 38.951 C31.949 38.137 31.965 37.322 31.982 36.484 C31.991 35.614 31.999 34.744 32.008 33.848 C32.025 32.948 32.042 32.048 32.059 31.121 C32.112 28.252 32.153 25.382 32.191 22.512 C32.235 19.635 32.282 16.758 32.334 13.881 C32.366 12.091 32.393 10.301 32.414 8.512 C32.517 2.36 32.517 2.36 33.629 0.137 C36.108 0.11 38.587 0.09 41.066 0.074 C41.773 0.066 42.481 0.057 43.209 0.049 C45.016 0.04 46.823 0.085 48.629 0.137 C50.756 2.263 49.84 7.043 49.875 9.992 C49.908 11.83 49.941 13.668 49.975 15.506 C50.022 18.411 50.066 21.316 50.106 24.222 C50.146 27.021 50.197 29.819 50.25 32.617 C50.258 33.48 50.267 34.343 50.275 35.231 C50.37 39.878 50.7 43.82 52.629 48.137 C56.442 50.534 60.217 50.609 64.629 50.137 C67.833 48.285 69.275 46.958 70.742 43.556 C71.84 39.324 71.963 35.408 72.008 31.055 C72.025 30.2 72.042 29.345 72.059 28.464 C72.112 25.751 72.153 23.038 72.191 20.324 C72.235 17.593 72.282 14.862 72.334 12.13 C72.366 10.434 72.393 8.738 72.414 7.042 C72.517 1.249 72.517 1.249 73.629 0.137 C75.939 0.011 78.253 -0.039 80.566 -0.051 C81.834 -0.065 83.101 -0.079 84.406 -0.094 C87.629 0.137 87.629 0.137 89.629 2.137 C89.89 3.949 89.89 3.949 89.904 6.168 C89.913 7 89.923 7.832 89.932 8.688 C89.932 9.591 89.931 10.493 89.93 11.422 C89.934 12.352 89.938 13.282 89.943 14.241 C89.948 16.215 89.949 18.19 89.945 20.165 C89.941 23.163 89.965 26.16 89.99 29.158 C89.993 31.079 89.993 33.001 89.992 34.922 C90.001 35.81 90.011 36.698 90.02 37.612 C89.95 47.253 87.47 54.17 80.82 61.188 C74.547 66.767 67.53 68.515 59.293 68.418 C52.315 67.681 47.124 64.356 42.629 59.137 C40.193 60.219 38.413 61.323 36.379 63.074 C30.09 67.791 23.405 69.194 15.629 68.137 C7.114 65.801 1.053 62.016 -3.516 54.43 C-8.257 44.739 -7.04 33.981 -6.809 23.449 C-6.787 21.296 -6.768 19.143 -6.752 16.99 C-6.71 13.087 -6.665 9.185 -6.58 5.282 C-6.564 4.504 -6.548 3.725 -6.532 2.923 C-6.179 -1.003 -3.295 0.006 0 0 Z " fill="#1D6BE1" transform="translate(473.37109375,79.86328125)"/>
<path d="M0 0 C1.421 1.169 2.774 2.421 4.109 3.688 C4.419 2.718 4.728 1.749 5.047 0.75 C6.109 -2.312 6.109 -2.312 7.109 -3.312 C9.64 -3.386 12.142 -3.405 14.672 -3.375 C15.738 -3.368 15.738 -3.368 16.826 -3.361 C18.587 -3.35 20.348 -3.332 22.109 -3.312 C23.185 -0.086 23.249 2.278 23.271 5.672 C23.28 6.903 23.29 8.135 23.3 9.403 C23.304 10.748 23.309 12.093 23.312 13.438 C23.318 14.816 23.324 16.195 23.33 17.573 C23.34 20.462 23.346 23.35 23.35 26.238 C23.355 29.941 23.379 33.643 23.408 37.345 C23.426 40.192 23.431 43.038 23.433 45.884 C23.436 47.25 23.444 48.615 23.457 49.98 C23.474 51.888 23.47 53.795 23.466 55.703 C23.471 57.332 23.471 57.332 23.477 58.993 C23.109 61.688 23.109 61.688 21.763 63.537 C19.253 65.284 17.127 65.085 14.109 65.062 C13.058 65.07 12.006 65.078 10.922 65.086 C8.109 64.688 8.109 64.688 6.277 63.332 C4.759 61.194 4.457 59.26 4.109 56.688 C3.456 57.302 3.456 57.302 2.789 57.93 C2.194 58.469 1.598 59.007 0.984 59.562 C0.404 60.096 -0.176 60.63 -0.773 61.18 C-8.037 66.352 -18.055 65.486 -26.516 64.328 C-33.905 62.375 -39.952 56.775 -44.34 50.672 C-50.096 40.144 -50.012 27.898 -46.926 16.617 C-44.138 8.728 -39.21 2.758 -31.891 -1.312 C-21.881 -5.709 -9.313 -6.465 0 0 Z M-27.266 17.125 C-31.288 23.469 -31.665 29.314 -30.891 36.688 C-29.296 42.024 -26.675 45.725 -21.891 48.688 C-16.585 51.278 -11.525 51.045 -5.891 49.688 C-0.916 47.497 2.285 44.015 4.449 39.059 C6.196 32.786 6.148 26.151 3.422 20.188 C0.538 15.294 -3.41 12.217 -8.891 10.688 C-16.415 9.947 -21.92 11.639 -27.266 17.125 Z " fill="#1D6CE2" transform="translate(322.890625,83.3125)"/>
<path d="M0 0 C0.703 0.004 1.405 0.008 2.129 0.012 C2.831 0.008 3.534 0.004 4.258 0 C9.502 0.01 9.502 0.01 10.629 1.137 C10.752 2.701 10.807 4.271 10.834 5.84 C10.854 6.841 10.874 7.842 10.895 8.873 C10.911 9.962 10.928 11.05 10.945 12.172 C10.966 13.28 10.987 14.389 11.008 15.531 C11.074 19.087 11.133 22.643 11.191 26.199 C11.235 28.604 11.278 31.008 11.322 33.412 C11.43 39.32 11.531 45.228 11.629 51.137 C12.639 50.001 12.639 50.001 13.67 48.842 C16.214 46.005 18.813 43.224 21.431 40.456 C22.55 39.257 23.653 38.045 24.741 36.818 C34.28 26.088 34.28 26.088 41.043 25.355 C44.966 25.232 48.749 25.573 52.629 26.137 C53.192 28.029 53.192 28.029 53.629 30.137 C52.617 31.855 52.617 31.855 50.941 33.637 C50.306 34.321 49.67 35.006 49.016 35.711 C47.196 37.56 45.367 39.394 43.523 41.219 C42.985 41.752 42.446 42.286 41.891 42.836 C40.81 43.901 39.723 44.96 38.63 46.012 C36.212 48.372 34.714 49.881 33.629 53.137 C34.444 55.06 34.444 55.06 35.805 57.023 C36.299 57.79 36.793 58.556 37.302 59.345 C38.113 60.572 38.113 60.572 38.941 61.824 C40.047 63.539 41.152 65.254 42.258 66.969 C43.897 69.485 45.539 72 47.183 74.513 C48.591 76.673 49.986 78.842 51.379 81.012 C51.809 81.658 52.238 82.305 52.681 82.971 C54.934 86.486 56.173 88.925 55.629 93.137 C52.708 94.597 50.068 94.423 46.816 94.512 C45.593 94.561 44.37 94.61 43.109 94.66 C39.648 94.14 38.223 93.608 35.949 90.978 C32.805 86.593 30.067 81.961 27.316 77.324 C26.671 76.25 26.026 75.175 25.361 74.068 C23.777 71.428 22.2 68.784 20.629 66.137 C14.497 70.552 14.497 70.552 11.327 77.025 C11.146 79.294 11.057 81.548 11.004 83.824 C10.734 92.031 10.734 92.031 9.629 93.137 C7.118 93.236 4.64 93.276 2.129 93.262 C1.426 93.266 0.724 93.269 0 93.273 C-5.244 93.263 -5.244 93.263 -6.371 92.137 C-6.472 89.312 -6.507 86.511 -6.5 83.686 C-6.502 82.799 -6.504 81.913 -6.506 81 C-6.51 78.056 -6.507 75.112 -6.504 72.168 C-6.505 70.132 -6.506 68.095 -6.507 66.059 C-6.508 61.785 -6.506 57.511 -6.501 53.237 C-6.496 47.745 -6.499 42.253 -6.505 36.762 C-6.509 32.555 -6.508 28.348 -6.505 24.141 C-6.504 22.116 -6.505 20.09 -6.507 18.065 C-6.51 15.239 -6.506 12.414 -6.5 9.588 C-6.503 8.742 -6.505 7.896 -6.507 7.025 C-6.481 0.012 -6.481 0.012 0 0 Z " fill="#1D6BE2" transform="translate(709.37109375,53.86328125)"/>
<path d="M0 0 C7.472 8.525 9.858 16.798 10 28 C9.28 37.038 5.941 45.624 -0.75 51.875 C-10.661 59.834 -21.719 61.004 -34 60 C-43.251 58.412 -49.944 54.132 -56 47 C-62.179 37.277 -63.374 27.524 -61.539 16.141 C-59.051 6.716 -53.282 -0.009 -45 -5 C-30.703 -11.998 -12.336 -10.205 0 0 Z M-40.875 12.75 C-44.638 18.505 -45.62 23.959 -44.598 30.762 C-43.161 36.144 -40.376 40.462 -35.625 43.438 C-29.277 46.174 -24.589 46.544 -18.148 44.148 C-13.676 41.758 -11.162 37.955 -8.625 33.688 C-6.994 26.675 -7.402 20.328 -11 14 C-15.237 8.822 -19.8 6.407 -26.438 5.562 C-32.483 6.305 -36.494 8.56 -40.875 12.75 Z " fill="#1D6BE2" transform="translate(634,88)"/>
<path d="M0 0 C1 3 1 3 0.004 5.48 C-0.71 6.82 -0.71 6.82 -1.438 8.188 C-1.911 9.089 -2.384 9.99 -2.871 10.918 C-3.244 11.605 -3.616 12.292 -4 13 C-7.633 12.534 -10.84 11.722 -14.25 10.438 C-19.116 8.755 -23.886 8.289 -29 9 C-29.99 9.66 -30.98 10.32 -32 11 C-31.887 13.409 -31.887 13.409 -31 16 C-27.185 18.769 -23.167 20.012 -18.688 21.375 C-10.613 23.953 -3.805 26.696 1 34 C2.868 39.604 2.735 45.707 0.938 51.312 C-4.018 58.187 -9.624 61.615 -18 63 C-28.752 64.032 -39.295 62.578 -48.75 57.062 C-51 55 -51 55 -52.125 52.688 C-51.939 48.679 -50.168 46.351 -48 43 C-43.731 43.363 -40.543 44.107 -36.688 46 C-30.651 48.823 -24.862 49.74 -18.375 48.062 C-17.591 47.712 -16.808 47.361 -16 47 C-16 45.02 -16 43.04 -16 41 C-22.234 37.565 -28.631 35.414 -35.414 33.344 C-40.935 31.275 -45.537 28.66 -48.301 23.25 C-50.077 17.533 -50.037 11.256 -48.223 5.559 C-45.13 -0.242 -40.018 -2.809 -34 -5 C-22.986 -7.706 -9.621 -6.241 0 0 Z " fill="#1D6BE2" transform="translate(408,85)"/>
<path d="M0 0 C0.66 0.66 1.32 1.32 2 2 C1.733 6.67 -0.628 10.098 -3 14 C-3.82 13.916 -4.64 13.832 -5.484 13.746 C-6.562 13.644 -7.64 13.542 -8.75 13.438 C-9.817 13.333 -10.885 13.229 -11.984 13.121 C-15.199 12.85 -15.199 12.85 -19 14 C-19.66 18.29 -20.32 22.58 -21 27 C-15.72 27 -10.44 27 -5 27 C-3.877 29.245 -3.866 30.515 -3.875 33 C-3.871 34.052 -3.871 34.052 -3.867 35.125 C-4 37 -4 37 -5 39 C-10.28 39 -15.56 39 -21 39 C-20.992 41.31 -20.992 41.31 -20.984 43.666 C-20.966 49.355 -20.955 55.045 -20.945 60.735 C-20.94 63.201 -20.933 65.668 -20.925 68.135 C-20.912 71.672 -20.907 75.209 -20.902 78.746 C-20.897 79.856 -20.892 80.967 -20.887 82.111 C-20.887 83.642 -20.887 83.642 -20.886 85.205 C-20.884 86.109 -20.882 87.012 -20.88 87.944 C-21 90 -21 90 -22 91 C-24.511 91.1 -26.989 91.139 -29.5 91.125 C-30.203 91.129 -30.905 91.133 -31.629 91.137 C-36.873 91.127 -36.873 91.127 -38 90 C-38.116 87.67 -38.168 85.368 -38.177 83.037 C-38.184 82.308 -38.19 81.58 -38.197 80.829 C-38.217 78.406 -38.228 75.982 -38.238 73.559 C-38.242 72.731 -38.246 71.903 -38.251 71.051 C-38.272 66.665 -38.286 62.279 -38.295 57.893 C-38.306 53.373 -38.341 48.853 -38.38 44.333 C-38.407 40.85 -38.415 37.368 -38.418 33.886 C-38.423 32.221 -38.435 30.555 -38.453 28.89 C-38.633 11.738 -38.633 11.738 -32.395 4.012 C-22.585 -4.199 -11.629 -4.712 0 0 Z " fill="#1D6BE1" transform="translate(273,56)"/>
<path d="M0 0 C1.165 0.014 2.331 0.028 3.531 0.043 C5.279 0.053 5.279 0.053 7.062 0.062 C10.031 0.23 10.031 0.23 12.031 1.23 C12.031 7.17 12.031 13.11 12.031 19.23 C18.301 19.23 24.571 19.23 31.031 19.23 C31.031 23.19 31.031 27.15 31.031 31.23 C24.761 31.23 18.491 31.23 12.031 31.23 C12.128 35.554 12.231 39.877 12.349 44.2 C12.387 45.67 12.422 47.139 12.453 48.609 C12.499 50.726 12.557 52.844 12.617 54.961 C12.664 56.87 12.664 56.87 12.712 58.817 C13.035 62.266 13.481 65.68 16.031 68.23 C20.706 68.412 20.706 68.412 25.281 67.605 C25.859 67.482 26.436 67.358 27.031 67.23 C30.698 69.675 30.965 71.046 32.031 75.23 C32.156 78.105 32.156 78.105 32.031 80.23 C24.711 84.569 17.43 85.323 9.031 84.23 C5.255 82.679 2.43 81.095 -0.219 77.98 C-0.698 77.439 -1.178 76.898 -1.672 76.34 C-4.68 71.446 -5.22 66.134 -5.228 60.501 C-5.234 59.206 -5.24 57.912 -5.247 56.578 C-5.243 55.185 -5.239 53.792 -5.234 52.398 C-5.236 50.956 -5.238 49.513 -5.24 48.071 C-5.243 45.061 -5.239 42.051 -5.229 39.041 C-5.218 35.18 -5.225 31.318 -5.237 27.457 C-5.244 24.484 -5.242 21.512 -5.236 18.539 C-5.235 17.115 -5.237 15.69 -5.241 14.266 C-5.246 12.282 -5.237 10.297 -5.228 8.313 C-5.225 6.619 -5.225 6.619 -5.223 4.892 C-4.85 0.981 -3.875 0.301 0 0 Z " fill="#1D6BE2" transform="translate(424.96875,63.76953125)"/>
<path d="M0 0 C1.294 2.588 1.168 4.55 1.188 7.438 C1.202 8.406 1.216 9.374 1.23 10.371 C1 13 1 13 -1 16 C-3.645 16.809 -3.645 16.809 -6.812 17.438 C-13.123 18.895 -13.123 18.895 -18 23 C-20.735 28.342 -21.451 32.57 -21.477 38.523 C-21.5 39.704 -21.5 39.704 -21.524 40.908 C-21.571 43.397 -21.599 45.886 -21.625 48.375 C-21.661 50.886 -21.702 53.396 -21.748 55.907 C-21.775 57.463 -21.796 59.02 -21.811 60.577 C-21.889 65.889 -21.889 65.889 -23 67 C-25.511 67.1 -27.989 67.139 -30.5 67.125 C-31.203 67.129 -31.905 67.133 -32.629 67.137 C-37.873 67.127 -37.873 67.127 -39 66 C-39.094 63.944 -39.117 61.886 -39.114 59.828 C-39.114 59.184 -39.114 58.54 -39.114 57.877 C-39.113 55.739 -39.105 53.602 -39.098 51.465 C-39.096 49.987 -39.094 48.508 -39.093 47.03 C-39.09 43.132 -39.08 39.234 -39.069 35.336 C-39.058 31.362 -39.054 27.387 -39.049 23.412 C-39.038 15.608 -39.021 7.804 -39 0 C-36.354 -0.027 -33.708 -0.047 -31.062 -0.062 C-30.308 -0.071 -29.553 -0.079 -28.775 -0.088 C-26.85 -0.097 -24.925 -0.052 -23 0 C-21.032 1.968 -21.338 5.348 -21 8 C-20.416 7.403 -20.416 7.403 -19.82 6.793 C-14.725 1.968 -7.202 -2.826 0 0 Z " fill="#1D6BE2" transform="translate(694,80)"/>
</svg>