<svg width="81" height="28" viewBox="0 0 81 28" fill="none" xmlns="http://www.w3.org/2000/svg">
<path d="M6.07083 0.326464C6.32125 0.258135 6.78415 0.159436 7.09528 0.106291C7.40641 0.0531453 8.02108 0.00759219 8.46121 0C8.90135 0 9.56155 0.0455531 9.94098 0.106291C10.3204 0.167028 10.882 0.303688 11.1931 0.409978C11.5042 0.516269 11.9975 0.72885 12.2934 0.873102C12.5894 1.02495 13.0295 1.29067 13.2799 1.46529C13.5304 1.64751 14.0084 2.04989 14.3423 2.36117C14.6762 2.67245 15.1467 3.18113 15.382 3.49241C15.6172 3.80369 15.9511 4.31237 16.118 4.62364C16.285 4.93492 16.5051 5.45119 16.6113 5.76247C16.7175 6.07375 16.8541 6.65835 16.9148 7.05315C16.9983 7.53905 17.0363 8.29067 17.0363 10.9252H11.0413V9.45987C11.0413 8.32863 11.0185 7.91106 10.9199 7.5846C10.8212 7.25814 10.6922 7.06833 10.328 6.7039C9.94857 6.3167 9.78162 6.21041 9.40978 6.10412C9.09106 6.01302 8.79511 5.98265 8.42327 6.00542C8.0059 6.0282 7.78583 6.09653 7.40641 6.30152C7.14081 6.44577 6.79932 6.69631 6.63997 6.86334C6.4882 7.03037 6.29089 7.36443 6.19983 7.59978C6.10877 7.84273 6.03288 8.09328 6.03288 8.15401C6.03288 8.25271 5.64587 8.2679 0 8.2679L0.0531197 7.64534C0.0834739 7.2961 0.189713 6.68872 0.295953 6.29393C0.394604 5.89913 0.584317 5.33731 0.720911 5.04122C0.849916 4.74512 1.14587 4.22126 1.38111 3.86443C1.61636 3.50759 2.1172 2.90781 2.49663 2.5282C2.87605 2.14859 3.46037 1.6551 3.79427 1.43492C4.12816 1.20716 4.67454 0.895879 5.00843 0.744035C5.34233 0.584599 5.8204 0.402386 6.07083 0.326464Z" fill="url(#paint0_linear_2618_551)"/>
<path d="M34.8693 8.11605V5.45879V2.80152H40.4089V8.11605H34.8693Z" fill="url(#paint1_linear_2618_551)"/>
<path d="M46.2369 6.46095C46.2293 4.7679 46.2597 3.48482 46.2976 3.45445C46.3356 3.42408 46.5708 3.41649 46.8212 3.44685C47.0717 3.46963 47.4663 3.53037 47.6939 3.57592C47.9216 3.61388 48.3693 3.75054 48.6804 3.87202C48.9916 3.9859 49.4924 4.25163 49.7808 4.45662C50.0691 4.66161 50.5017 5.03362 50.7293 5.27657C50.957 5.52712 51.2757 5.9295 51.4275 6.18004C51.5793 6.43059 51.7917 6.89371 51.898 7.20499C51.9966 7.51627 52.1256 7.99458 52.1636 8.2679C52.2091 8.54121 52.247 8.90564 52.247 9.40672H46.2521L46.2369 6.46095Z" fill="url(#paint2_linear_2618_551)"/>
<path d="M0.295953 10.6215C0.189713 10.2267 0.0910624 9.58135 0.0682968 9.19414L0.0227656 8.48807L2.92917 8.53362C4.53035 8.56399 5.88111 8.59436 5.91906 8.60195C5.96459 8.61714 6.01771 8.79176 6.04047 8.99675C6.07083 9.20174 6.16948 9.52061 6.26054 9.71041C6.35919 9.90022 6.54132 10.1811 6.67032 10.3482C6.80691 10.5152 7.09528 10.7278 7.36088 10.8568C7.75548 11.0466 7.95278 11.0922 8.8027 11.1453C9.34907 11.1909 10.0093 11.2668 10.2825 11.3351C10.5556 11.3959 11.0337 11.5401 11.3449 11.654C11.656 11.7603 12.2251 12.0108 12.597 12.2007C12.9764 12.3829 13.5 12.679 13.7732 12.8536C14.0464 13.0282 14.4865 13.3774 14.7597 13.6356C15.0329 13.8861 15.4427 14.3644 15.6703 14.6909C15.8904 15.0174 16.1788 15.5108 16.3002 15.7842C16.4216 16.0575 16.6037 16.5813 16.7024 16.961C16.801 17.3406 16.9148 17.9328 16.9604 18.2896C16.9983 18.6464 17.0363 19.1171 17.0363 19.7321H11.0793L11.0261 19.2614C10.9958 18.9957 10.8895 18.6161 10.7833 18.4035C10.6847 18.1985 10.4494 17.8872 10.2673 17.7278C10.0927 17.5607 9.75126 17.3406 9.52361 17.2419C9.18213 17.09 8.90894 17.0445 8.08179 16.9913C7.44435 16.9458 6.76897 16.8547 6.29848 16.7332C5.85076 16.6269 5.2285 16.3915 4.78078 16.1714C4.36341 15.9664 3.80186 15.6247 3.52867 15.4197C3.25548 15.2148 2.75464 14.7516 2.41315 14.3872C2.06408 14.0304 1.60118 13.4534 1.37352 13.1117C1.14587 12.7625 0.849916 12.2234 0.720911 11.9121C0.584317 11.6009 0.394604 11.0163 0.295953 10.6215Z" fill="url(#paint3_linear_2618_551)"/>
<path d="M52.6492 9.93059C52.6568 9.92299 53.0894 9.87744 53.613 9.8243C54.1366 9.77115 54.8196 9.7256 55.1307 9.71801C55.4418 9.71801 56.011 9.76356 56.3828 9.8243C56.7622 9.88503 57.3238 10.0217 57.6349 10.128C57.946 10.2343 58.4469 10.4469 58.7352 10.5911C59.0312 10.743 59.4865 11.0163 59.7597 11.2137C60.0329 11.4035 60.5489 11.8514 60.9056 12.2082C61.2622 12.5651 61.7631 13.1649 62.0059 13.5445C62.2563 13.9165 62.575 14.5011 62.7116 14.8351C62.8482 15.1692 63.0304 15.7007 63.1062 16.0119C63.1897 16.3232 63.2884 16.9382 63.3339 17.3785C63.4022 17.9631 63.4022 18.3959 63.3339 19.0108C63.2884 19.4664 63.1897 20.1041 63.1062 20.4154C63.0304 20.7267 62.8482 21.2581 62.7116 21.5922C62.575 21.9262 62.2563 22.5033 62.0059 22.8829C61.7631 23.2549 61.2622 23.8547 60.9056 24.2115C60.5489 24.5683 59.9494 25.0618 59.57 25.3124C59.1981 25.5629 58.6138 25.8742 58.2799 26.0184C57.946 26.1551 57.4148 26.3373 57.1037 26.4132C56.7926 26.4967 56.2993 26.5954 56.0034 26.641C55.715 26.679 55.3811 26.7169 55.0548 26.7169V20.9848L55.3356 20.9393C55.4949 20.9165 55.7757 20.8254 55.9654 20.7343C56.1551 20.6508 56.4739 20.4306 56.6788 20.2484C56.8988 20.051 57.1341 19.7397 57.2631 19.4664C57.4528 19.0792 57.4831 18.9197 57.4831 18.4187C57.4831 18.0163 57.4376 17.7126 57.3314 17.4317C57.2479 17.2191 57.0582 16.8926 56.914 16.7104C56.7395 16.5054 56.4739 16.308 55.6239 15.898L52.6265 15.8601V12.8991C52.6265 11.2668 52.6341 9.93059 52.6492 9.93059Z" fill="url(#paint4_linear_2618_551)"/>
<path d="M25.5734 9.98373C25.9907 9.9154 26.4688 9.84707 26.6357 9.83948C26.8027 9.8243 27.0076 9.80911 27.0911 9.8167C27.2428 9.8243 27.2428 9.87744 27.2428 15.6703L26.8255 15.7234C26.5978 15.7614 26.2411 15.8677 26.0287 15.9664C25.8238 16.0651 25.5126 16.3004 25.3533 16.4826C25.1863 16.6573 24.9663 16.9989 24.6627 17.6443L24.6248 26.7169H18.6298L18.6526 21.987C18.6754 17.5228 18.6906 17.2267 18.8347 16.5813C18.9258 16.2017 19.1003 15.5868 19.2369 15.2148C19.3659 14.8351 19.6164 14.2733 19.7833 13.962C19.9503 13.6508 20.2766 13.1421 20.5118 12.8308C20.7546 12.5195 21.1492 12.0944 21.3997 11.8742C21.6501 11.6616 22.0067 11.3807 22.1965 11.2516C22.3862 11.1226 22.758 10.91 23.0312 10.7733C23.3044 10.6367 23.8128 10.4317 24.1695 10.3178C24.5261 10.2039 25.156 10.0521 25.5734 9.98373Z" fill="url(#paint5_linear_2618_551)"/>
<path d="M34.8314 18.7831L34.8541 14.2809L34.8769 9.78633H40.796L40.8263 18.859L41.0767 19.3753C41.2361 19.7093 41.4334 19.9751 41.6459 20.1421C41.8204 20.2863 42.1012 20.461 42.2681 20.5369C42.4351 20.6052 42.7462 20.6811 43.3305 20.757L43.3685 26.7549L42.6703 26.6941C42.2833 26.6562 41.6383 26.5499 41.2437 26.4436C40.8339 26.3373 40.1661 26.0868 39.688 25.8514C39.2327 25.6236 38.618 25.2516 37.7909 24.6139L37.2597 25.0163C36.9713 25.244 36.3567 25.6161 35.8938 25.8438C35.3853 26.102 34.7782 26.3373 34.3381 26.4512C33.9435 26.5499 33.2985 26.6562 32.2133 26.7549V23.8471C32.2133 21 32.2133 20.9469 32.3651 20.9469C32.4486 20.9469 32.7142 20.8709 32.957 20.7798C33.2757 20.6584 33.5186 20.4913 33.8904 20.1193C34.1636 19.846 34.4899 19.4284 34.8314 18.7831Z" fill="url(#paint6_linear_2618_551)"/>
<path d="M46.2369 14.41C46.2445 11.9729 46.2673 9.93059 46.2901 9.87744C46.3128 9.80152 46.9882 9.77874 52.2546 9.77874L52.285 18.9273L52.4899 19.3449C52.5961 19.5803 52.8314 19.8915 52.9983 20.051C53.1728 20.2104 53.4536 20.4078 53.6282 20.4989C53.8103 20.5824 54.1366 20.6811 54.7513 20.7495V26.7473L54.129 26.6941C53.7799 26.6638 53.2108 26.5651 52.8541 26.4816C52.4975 26.398 51.9511 26.2234 51.64 26.0944C51.3288 25.9653 50.828 25.7223 50.5396 25.5553C50.2437 25.3807 49.8263 25.0922 49.2116 24.5835L48.8094 24.91C48.597 25.0922 48.2099 25.3579 47.9595 25.5174C47.7091 25.6692 47.2614 25.9046 46.973 26.0336C46.6771 26.1703 46.1307 26.3525 45.7589 26.4512C45.3794 26.5499 44.7572 26.6562 43.672 26.7473V20.9772L44.0666 20.8785C44.2867 20.8254 44.6358 20.6735 44.8406 20.5369C45.0455 20.4078 45.3567 20.1345 45.5236 19.9447C45.6981 19.7473 45.9182 19.4208 46.2142 18.8514L46.2369 14.41Z" fill="url(#paint7_linear_2618_551)"/>
<path d="M27.4325 15.8525L27.4401 12.8839L27.4553 9.9154L28.1079 9.95336C28.4646 9.97614 28.9654 10.0521 29.2159 10.1204C29.4663 10.1887 29.9444 10.3709 30.2782 10.538C30.6121 10.705 31.1054 11.0163 31.3786 11.244C31.6518 11.4642 32.0312 11.8514 32.2209 12.102C32.4106 12.3525 32.6838 12.7777 32.8204 13.0434C32.957 13.3167 33.1315 13.795 33.2074 14.1063C33.2909 14.4252 33.3744 14.9414 33.4654 15.8601L27.4325 15.8525Z" fill="url(#paint8_linear_2618_551)"/>
<path d="M64.0017 26.9371V18.4338V9.93059H69.9283L69.9587 18.9273L70.156 19.3449C70.2622 19.5727 70.4899 19.9143 70.6568 20.1041C70.8314 20.2939 71.1501 20.5521 71.3777 20.6735C71.742 20.8785 71.8558 20.9013 72.425 20.9013C72.9637 20.9013 73.1459 20.8709 73.4874 20.7039C73.7226 20.5976 74.0868 20.3319 74.3069 20.1193C74.6332 19.7928 74.7319 19.6334 74.8609 19.2158C75.0051 18.7223 75.0126 18.5022 75.0051 9.93059H81L80.9621 26.8991L80.355 26.8688C80.0211 26.8612 79.5126 26.7852 79.2167 26.7093C78.9283 26.6334 78.4654 26.4664 78.1922 26.3297C77.9266 26.1931 77.5472 25.9805 77.3575 25.8514C77.0236 25.6236 77.016 25.6236 76.7884 25.7603C76.667 25.8362 76.3406 26.0033 76.0675 26.1475C75.8019 26.2842 75.2858 26.4816 74.9292 26.5803C74.5801 26.6866 73.9275 26.8156 73.4874 26.8612C73.0245 26.9143 72.4098 26.9295 72.0076 26.8991C71.6358 26.8764 71.0894 26.808 70.7934 26.7473C70.5051 26.6941 70.0422 26.5727 69.769 26.4816C69.5034 26.3905 68.9646 26.1551 67.887 25.6085L67.6366 25.8286C67.4924 25.9501 67.1509 26.1627 66.8701 26.2994C66.5894 26.4436 66.0734 26.6258 65.7319 26.7017C65.3904 26.7853 64.8592 26.8688 64.0017 26.9371Z" fill="url(#paint9_linear_2618_551)"/>
<path d="M0.77403 17.3633C1.18381 17.3557 2.10961 17.3254 2.83811 17.3026C3.5742 17.2722 4.59106 17.2419 6.0253 17.2191V18.6844C6.0253 19.7321 6.05565 20.2484 6.13912 20.5217C6.20742 20.7722 6.36678 21.038 6.60961 21.3113C6.8145 21.5315 7.1484 21.7972 7.35329 21.8959C7.56577 21.9946 7.95278 22.1009 8.22597 22.1312C8.59022 22.1616 8.83305 22.1388 9.13659 22.0477C9.37184 21.9718 9.74368 21.7896 9.97133 21.6377C10.2142 21.4783 10.4949 21.1974 10.6391 20.9772C10.7757 20.7722 10.9275 20.4154 11.0717 19.8004H17.0287L17.0363 20.1269C17.0363 20.3015 16.9831 20.7343 16.9224 21.0911C16.8617 21.4479 16.7251 21.9794 16.6265 22.2679C16.5278 22.564 16.3078 23.0727 16.1332 23.4067C15.9587 23.7408 15.6476 24.2343 15.4503 24.5076C15.2454 24.7809 14.828 25.2516 14.5169 25.5629C14.2133 25.8666 13.6138 26.3449 13.1965 26.6258C12.7791 26.8991 12.1265 27.256 11.7395 27.4154C11.3524 27.5672 10.6922 27.7646 10.2749 27.8482C9.75126 27.9544 9.21248 28 8.52951 28C7.84654 28 7.31535 27.9544 6.78415 27.8482C6.36678 27.7646 5.71417 27.5672 5.32715 27.4154C4.94014 27.256 4.27993 26.9067 3.86256 26.6258C3.44519 26.3525 2.81535 25.8362 2.45868 25.487C2.08685 25.1226 1.60877 24.5456 1.33558 24.128C1.07757 23.7332 0.758853 23.1334 0.629848 22.7993C0.500843 22.4653 0.349073 22.0022 0.295953 21.7744C0.235245 21.5466 0.151771 21.1215 0.113828 20.8254C0.0682968 20.5369 0.0379427 19.6334 0.0303541 17.3709L0.77403 17.3633Z" fill="url(#paint10_linear_2618_551)"/>
<defs>
<linearGradient id="paint0_linear_2618_551" x1="22.14" y1="3.81818" x2="30.4629" y2="38.8515" gradientUnits="userSpaceOnUse">
<stop stop-color="#3DC2FF"/>
<stop offset="1" stop-color="#5F2EEA"/>
</linearGradient>
<linearGradient id="paint1_linear_2618_551" x1="22.14" y1="3.81818" x2="30.4629" y2="38.8515" gradientUnits="userSpaceOnUse">
<stop stop-color="#3DC2FF"/>
<stop offset="1" stop-color="#5F2EEA"/>
</linearGradient>
<linearGradient id="paint2_linear_2618_551" x1="22.14" y1="3.81818" x2="30.4629" y2="38.8515" gradientUnits="userSpaceOnUse">
<stop stop-color="#3DC2FF"/>
<stop offset="1" stop-color="#5F2EEA"/>
</linearGradient>
<linearGradient id="paint3_linear_2618_551" x1="22.14" y1="3.81818" x2="30.4629" y2="38.8515" gradientUnits="userSpaceOnUse">
<stop stop-color="#3DC2FF"/>
<stop offset="1" stop-color="#5F2EEA"/>
</linearGradient>
<linearGradient id="paint4_linear_2618_551" x1="22.14" y1="3.81818" x2="30.4629" y2="38.8515" gradientUnits="userSpaceOnUse">
<stop stop-color="#3DC2FF"/>
<stop offset="1" stop-color="#5F2EEA"/>
</linearGradient>
<linearGradient id="paint5_linear_2618_551" x1="22.14" y1="3.81818" x2="30.4629" y2="38.8515" gradientUnits="userSpaceOnUse">
<stop stop-color="#3DC2FF"/>
<stop offset="1" stop-color="#5F2EEA"/>
</linearGradient>
<linearGradient id="paint6_linear_2618_551" x1="22.14" y1="3.81818" x2="30.4629" y2="38.8515" gradientUnits="userSpaceOnUse">
<stop stop-color="#3DC2FF"/>
<stop offset="1" stop-color="#5F2EEA"/>
</linearGradient>
<linearGradient id="paint7_linear_2618_551" x1="22.14" y1="3.81818" x2="30.4629" y2="38.8515" gradientUnits="userSpaceOnUse">
<stop stop-color="#3DC2FF"/>
<stop offset="1" stop-color="#5F2EEA"/>
</linearGradient>
<linearGradient id="paint8_linear_2618_551" x1="22.14" y1="3.81818" x2="30.4629" y2="38.8515" gradientUnits="userSpaceOnUse">
<stop stop-color="#3DC2FF"/>
<stop offset="1" stop-color="#5F2EEA"/>
</linearGradient>
<linearGradient id="paint9_linear_2618_551" x1="22.14" y1="3.81818" x2="30.4629" y2="38.8515" gradientUnits="userSpaceOnUse">
<stop stop-color="#3DC2FF"/>
<stop offset="1" stop-color="#5F2EEA"/>
</linearGradient>
<linearGradient id="paint10_linear_2618_551" x1="22.14" y1="3.81818" x2="30.4629" y2="38.8515" gradientUnits="userSpaceOnUse">
<stop stop-color="#3DC2FF"/>
<stop offset="1" stop-color="#5F2EEA"/>
</linearGradient>
</defs>
</svg>
