
<!-- Generator: visioncortex VTracer 0.6.4 -->
<svg version="1.1" xmlns="http://www.w3.org/2000/svg" viewBox="0 0 1147 654" preserveAspectRatio="xMidYMid meet">
<path d="M0 0 C8.91 0 17.82 0 27 0 C27.02 2.195 27.04 4.389 27.06 6.65 C27.127 13.926 27.205 21.203 27.288 28.479 C27.337 32.888 27.384 37.296 27.422 41.705 C27.459 45.965 27.505 50.225 27.558 54.485 C27.576 56.104 27.592 57.724 27.603 59.344 C27.664 67.445 27.771 75.142 30 83 C30.66 83 31.32 83 32 83 C32 83.99 32 84.98 32 86 C32.835 86.402 32.835 86.402 33.688 86.812 C36 88 36 88 38.25 89.5 C45.218 93.301 52.335 93.862 60 92 C65.803 89.284 70.056 85.77 73 80 C74.656 75.047 75.265 70.716 75.319 65.504 C75.329 64.791 75.339 64.078 75.349 63.343 C75.38 61.012 75.397 58.68 75.414 56.348 C75.433 54.721 75.452 53.094 75.473 51.468 C75.524 47.205 75.564 42.942 75.601 38.679 C75.641 34.322 75.692 29.965 75.742 25.607 C75.839 17.072 75.922 8.536 76 0 C84.91 0 93.82 0 103 0 C103.99 2.97 104.98 5.94 106 9 C106.956 11.509 107.934 14.01 108.938 16.5 C109.195 17.143 109.453 17.786 109.719 18.448 C111.469 22.78 113.325 27.048 115.336 31.266 C116 33 116 33 116 36 C116.66 36 117.32 36 118 36 C118.471 36.964 118.941 37.928 119.426 38.922 C120.054 40.198 120.683 41.474 121.312 42.75 C121.621 43.384 121.93 44.018 122.248 44.672 C123.91 48.031 125.619 51.099 128 54 C128.364 53.166 128.727 52.332 129.102 51.473 C135.411 37.349 135.411 37.349 140 32 C140.66 32 141.32 32 142 32 C142 31.01 142 30.02 142 29 C143.98 28.505 143.98 28.505 146 28 C146 27.01 146 26.02 146 25 C162.196 15.95 176.513 11.323 195.125 16.125 C205.293 19.598 214.243 25.621 221 34 C221 34.66 221 35.32 221 36 C221.66 36 222.32 36 223 36 C224.137 37.993 225.259 39.995 226.375 42 C227.001 43.114 227.628 44.228 228.273 45.375 C234.135 56.92 233.849 72.989 230.375 85.25 C228.333 90.779 225.672 95.406 222 100 C221.363 100.822 220.726 101.645 220.07 102.492 C211.753 112.516 200.485 119.815 187.364 121.298 C184.651 121.436 181.966 121.468 179.25 121.438 C178.29 121.43 177.33 121.422 176.341 121.415 C163.821 121.126 153.696 117.549 143 111 C143.028 111.993 143.057 112.985 143.086 114.008 C142.998 118.085 142.429 121.894 141.625 125.875 C141.499 126.531 141.372 127.187 141.242 127.863 C140.255 132.93 139.132 137.964 138 143 C137.582 144.885 137.164 146.771 136.746 148.656 C136.31 150.604 135.874 152.552 135.438 154.5 C135.106 156 135.106 156 134.768 157.531 C134.554 158.48 134.341 159.429 134.121 160.406 C133.93 161.265 133.738 162.125 133.541 163.01 C133 165 133 165 132 166 C129.927 166.088 127.852 166.107 125.777 166.098 C124.517 166.094 123.257 166.091 121.959 166.088 C120.618 166.08 119.278 166.071 117.938 166.062 C116.593 166.057 115.249 166.053 113.904 166.049 C110.603 166.037 107.301 166.021 104 166 C107.213 149.78 110.44 133.566 114.211 117.465 C115.226 113.006 116.18 108.536 117.125 104.062 C117.296 103.257 117.467 102.451 117.643 101.621 C117.962 100.097 118.274 98.572 118.575 97.045 C118.942 95.279 119.395 93.531 119.863 91.789 C120.057 87.844 118.521 86.325 116.062 83.312 C112 78.274 112 78.274 112 75 C111.34 75 110.68 75 110 75 C108.02 71.04 106.04 67.08 104 63 C103.902 64.316 103.804 65.632 103.703 66.988 C102.921 76.491 102.132 85.255 98 94 C97.34 94 96.68 94 96 94 C95.89 94.563 95.781 95.127 95.668 95.707 C92.947 105.048 85.474 110.407 77.512 115.086 C65.309 121.737 51.761 124.313 38 121 C28.524 117.316 15.36 111.721 10.562 102.125 C10.284 101.073 10.284 101.073 10 100 C9.34 100 8.68 100 8 100 C4.556 94.537 2.639 89.231 1 83 C0.825 82.451 0.649 81.902 0.469 81.336 C-0.202 77.995 -0.13 74.686 -0.114 71.294 C-0.114 70.137 -0.114 70.137 -0.114 68.957 C-0.113 66.414 -0.105 63.871 -0.098 61.328 C-0.096 59.563 -0.094 57.797 -0.093 56.032 C-0.09 51.389 -0.08 46.747 -0.069 42.104 C-0.058 37.365 -0.054 32.626 -0.049 27.887 C-0.038 18.591 -0.021 9.296 0 0 Z M163 48 C162.67 48.99 162.34 49.98 162 51 C161.34 51 160.68 51 160 51 C156.618 57.417 154.313 63.846 152.625 70.875 C152.445 71.6 152.266 72.325 152.081 73.072 C150.713 78.648 150.713 78.648 152 84 C154.439 85.783 157.07 87.002 159.812 88.25 C160.9 88.776 160.9 88.776 162.01 89.312 C170.279 93.246 179.498 94.945 188.52 92.246 C190.479 91.291 192.219 90.255 194 89 C194.949 88.361 195.898 87.721 196.875 87.062 C199.194 84.811 199.942 83.011 201 80 C201.66 79.67 202.32 79.34 203 79 C206.689 71.72 206.14 65.474 204.188 57.812 C200.839 49.883 195.552 45.776 188 42 C178.607 41.142 169.965 40.565 163 48 Z " fill="#6DDB39" transform="translate(244,252)"/>
<path d="M0 0 C7.59 0 15.18 0 23 0 C24.894 4.42 26.409 8.011 27.578 12.527 C27.984 14.07 27.984 14.07 28.398 15.644 C28.82 17.274 28.82 17.274 29.25 18.938 C31.667 28.094 34.163 37.22 36.812 46.312 C37.247 47.814 37.247 47.814 37.69 49.345 C38.101 50.746 38.101 50.746 38.52 52.176 C38.758 52.99 38.996 53.803 39.241 54.642 C40.048 57.148 40.996 59.567 42 62 C42.33 62 42.66 62 43 62 C43.196 61.081 43.196 61.081 43.396 60.143 C46.052 47.702 48.821 35.318 52 23 C53.713 16.313 55.335 9.657 56.57 2.863 C57 1 57 1 58 0 C59.708 -0.087 61.419 -0.107 63.129 -0.098 C64.681 -0.093 64.681 -0.093 66.264 -0.088 C67.352 -0.08 68.441 -0.071 69.562 -0.062 C71.201 -0.056 71.201 -0.056 72.873 -0.049 C75.582 -0.037 78.291 -0.021 81 0 C81.984 3.54 82.961 7.082 83.938 10.625 C84.215 11.624 84.493 12.623 84.779 13.652 C86.091 18.424 87.275 23.098 88 28 C88.394 29.734 88.812 31.464 89.25 33.188 C89.509 34.214 89.768 35.24 90.035 36.297 C90.777 39.146 91.536 41.988 92.309 44.828 C92.536 45.671 92.763 46.514 92.997 47.382 C93.451 49.06 93.909 50.737 94.374 52.413 C95.439 56.362 96.309 59.867 96 64 C96.66 64 97.32 64 98 64 C98.182 63.117 98.364 62.234 98.551 61.324 C99.917 54.799 101.389 48.35 103.195 41.934 C104.128 38.532 104.971 35.113 105.812 31.688 C107.519 24.789 109.333 17.922 111.188 11.062 C111.45 10.084 111.712 9.106 111.982 8.098 C112.229 7.191 112.476 6.283 112.73 5.348 C112.951 4.533 113.172 3.718 113.399 2.879 C114 1 114 1 115 0 C116.781 -0.087 118.565 -0.107 120.348 -0.098 C121.427 -0.094 122.507 -0.091 123.619 -0.088 C125.324 -0.075 125.324 -0.075 127.062 -0.062 C128.773 -0.056 128.773 -0.056 130.518 -0.049 C133.345 -0.037 136.173 -0.021 139 0 C137.463 7.447 135.387 14.662 133.188 21.938 C130.854 29.733 128.529 37.528 126.375 45.375 C123.656 55.271 120.842 65.139 118 75 C117.538 76.603 117.538 76.603 117.067 78.239 C116.11 81.556 115.149 84.872 114.188 88.188 C113.885 89.234 113.583 90.28 113.272 91.358 C112.99 92.326 112.708 93.295 112.418 94.293 C112.168 95.154 111.918 96.016 111.661 96.903 C111 99 111 99 110 101 C102.41 101 94.82 101 87 101 C85.491 96.472 84.14 91.984 82.938 87.375 C82.631 86.213 82.631 86.213 82.319 85.027 C80.741 78.982 79.235 72.919 77.742 66.852 C77.339 65.217 76.935 63.582 76.531 61.948 C75.722 58.668 74.92 55.386 74.123 52.103 C73.745 50.569 73.367 49.034 72.988 47.5 C72.732 46.432 72.732 46.432 72.471 45.343 C71.66 42.08 70.888 39.832 69 37 C68.875 37.542 68.749 38.084 68.62 38.642 C66.4 48.208 64.139 57.744 61.438 67.188 C59.478 74.042 57.821 80.927 56.344 87.901 C56.121 88.946 56.121 88.946 55.895 90.012 C55.769 90.615 55.644 91.217 55.515 91.839 C54.781 94.919 53.87 97.955 53 101 C45.08 101 37.16 101 29 101 C27.253 95.481 25.508 89.962 23.77 84.441 C23.109 82.347 22.446 80.253 21.781 78.16 C21.441 77.076 21.101 75.992 20.75 74.875 C20.456 73.944 20.162 73.014 19.859 72.055 C19.179 69.636 18.614 67.259 18.094 64.805 C16.946 59.523 15.361 54.406 13.75 49.25 C11.083 40.613 8.528 31.953 6.073 23.253 C4.378 17.264 2.576 11.322 0.664 5.398 C0 3 0 3 0 0 Z " fill="#4D4D4D" transform="translate(476,270)"/>
<path d="M0 0 C7.92 0 15.84 0 24 0 C24 26.07 24 52.14 24 79 C38.622 77.028 38.622 77.028 49.312 68.375 C53.248 62.609 56 56.003 56 49 C63.92 49 71.84 49 80 49 C80 60.968 78.037 67.952 72 78 C71.567 78.866 71.134 79.733 70.688 80.625 C68.027 84.369 64.527 87.093 61 90 C60.051 90.804 59.102 91.609 58.125 92.438 C56 94 56 94 54 94 C54.33 95.32 54.66 96.64 55 98 C55.66 98 56.32 98 57 98 C57.66 99.98 58.32 101.96 59 104 C59.66 104 60.32 104 61 104 C62.508 105.898 62.508 105.898 64.125 108.375 C64.664 109.187 65.203 109.999 65.758 110.836 C67 113 67 113 67 115 C67.66 115 68.32 115 69 115 C70.402 117.082 70.402 117.082 71.938 119.812 C73.731 122.991 75.391 125.472 78 128 C79.096 129.497 80.158 131.019 81.188 132.562 C81.717 133.348 82.247 134.133 82.793 134.941 C84 137 84 137 84 139 C84.66 139 85.32 139 86 139 C90 145.75 90 145.75 90 148 C90.66 148 91.32 148 92 148 C92 148.66 92 149.32 92 150 C82.76 150 73.52 150 64 150 C63.01 148.02 63.01 148.02 62 146 C61.34 146 60.68 146 60 146 C59.567 145.072 59.567 145.072 59.125 144.125 C58.063 141.867 58.063 141.867 56 140 C55.104 138.849 54.231 137.681 53.375 136.5 C52.929 135.892 52.483 135.283 52.023 134.656 C51 133 51 133 51 131 C50.34 131 49.68 131 49 131 C46 126.615 46 126.615 46 124 C45.34 124 44.68 124 44 124 C42.52 121.91 42.52 121.91 40.812 119.062 C38.443 115.263 36.066 111.502 33.438 107.875 C32.921 107.151 32.404 106.426 31.871 105.68 C29.659 103.392 29.659 103.392 24 103 C24 118.51 24 134.02 24 150 C16.08 150 8.16 150 0 150 C0 100.5 0 51 0 0 Z " fill="#4B4B4B" transform="translate(807,221)"/>
<path d="M0 0 C11.842 9.461 17.835 22.058 20.195 36.754 C21.717 51.079 16.928 64.803 9.195 76.754 C5.933 80.527 2.942 83.172 -1.805 84.754 C-1.805 85.414 -1.805 86.074 -1.805 86.754 C-3.988 87.887 -6.176 89.01 -8.367 90.129 C-8.976 90.446 -9.585 90.763 -10.213 91.09 C-21.975 97.064 -36.762 98.082 -49.43 94.129 C-58.864 90.328 -65.934 85.196 -72.805 77.754 C-73.359 77.225 -73.913 76.697 -74.484 76.152 C-76.101 74.44 -76.41 73.044 -76.805 70.754 C-77.465 70.754 -78.125 70.754 -78.805 70.754 C-86.055 58.254 -87.735 43.202 -84.488 29.184 C-80.413 14.698 -71.763 2.628 -58.629 -4.895 C-38.615 -14.472 -18.171 -12.631 0 0 Z M-55.992 22.941 C-61.935 30.51 -63.603 37.297 -63.312 46.961 C-62.131 55.785 -57.863 62.932 -50.891 68.422 C-44.365 72.589 -36.511 74.643 -28.805 73.754 C-19.338 71.562 -12.495 67.014 -6.914 59.059 C-2.58 51.465 -1.356 44.389 -2.805 35.754 C-5.681 27.114 -10.021 20.783 -18.109 16.547 C-31.232 10.459 -45.817 11.927 -55.992 22.941 Z " fill="#4C4C4C" transform="translate(700.8046875,277.24609375)"/>
<path d="M0 0 C7.92 0 15.84 0 24 0 C24.33 4.29 24.66 8.58 25 13 C25.722 12.257 26.444 11.515 27.188 10.75 C34.254 3.841 40.766 -0.114 50.874 -0.281 C53.917 -0.239 56.959 -0.111 60 0 C60 7.59 60 15.18 60 23 C56.813 23.155 56.813 23.155 53.562 23.312 C44.101 24.018 36.418 25.565 30 33 C26.171 38.936 24.908 44.586 24.795 51.616 C24.775 52.717 24.755 53.818 24.734 54.952 C24.709 56.718 24.709 56.718 24.684 58.52 C24.663 59.733 24.642 60.947 24.621 62.197 C24.555 66.069 24.496 69.941 24.438 73.812 C24.394 76.439 24.351 79.066 24.307 81.693 C24.199 88.129 24.1 94.564 24 101 C16.08 101 8.16 101 0 101 C0 67.67 0 34.34 0 0 Z " fill="#4B4B4B" transform="translate(734,270)"/>
<path d="M0 0 C5 1 5 1 6.582 3.066 C6.988 3.89 7.394 4.714 7.812 5.562 C8.231 6.389 8.65 7.215 9.082 8.066 C9.385 8.704 9.688 9.343 10 10 C10.66 10 11.32 10 12 10 C13.588 7.459 14.963 4.834 16.367 2.188 C16.906 1.466 17.445 0.744 18 0 C19.32 0 20.64 0 22 0 C22 7.92 22 15.84 22 24 C20.68 24 19.36 24 18 24 C17.67 19.05 17.34 14.1 17 9 C15.68 11.31 14.36 13.62 13 16 C11.68 16 10.36 16 9 16 C8.67 14.68 8.34 13.36 8 12 C7.34 12 6.68 12 6 12 C5.34 10.68 4.68 9.36 4 8 C3.67 13.28 3.34 18.56 3 24 C2.01 24 1.02 24 0 24 C0 16.08 0 8.16 0 0 Z " fill="#4D4D4D" transform="translate(916,270)"/>
<path d="M0 0 C6.27 0 12.54 0 19 0 C19 1.32 19 2.64 19 4 C16.69 4 14.38 4 12 4 C12 10.6 12 17.2 12 24 C10.68 24 9.36 24 8 24 C8 17.4 8 10.8 8 4 C5.36 4 2.72 4 0 4 C0 2.68 0 1.36 0 0 Z " fill="#4A4A4A" transform="translate(893,270)"/>
<path d="M0 0 C1.32 0 2.64 0 4 0 C4 7.92 4 15.84 4 24 C2.68 24 1.36 24 0 24 C0.005 23.445 0.01 22.891 0.016 22.319 C0.037 19.796 0.05 17.273 0.062 14.75 C0.071 13.877 0.079 13.005 0.088 12.105 C0.091 11.261 0.094 10.417 0.098 9.547 C0.103 8.772 0.108 7.997 0.114 7.198 C0.071 4.974 0.071 4.974 -0.569 2.778 C-0.711 2.191 -0.853 1.605 -1 1 C-0.67 0.67 -0.34 0.34 0 0 Z " fill="#4B4B4B" transform="translate(934,270)"/>
<path d="M0 0 C2.335 2.257 4.187 4.281 6 7 C6.577 6.216 7.155 5.433 7.75 4.625 C9.829 2.2 11.09 1.143 14 0 C12.434 4.308 10.317 8.062 8 12 C6.68 12 5.36 12 4 12 C3.67 10.68 3.34 9.36 3 8 C2.34 8 1.68 8 1 8 C0.269 6.023 -0.394 4.019 -1 2 C-0.67 1.34 -0.34 0.68 0 0 Z " fill="#616161" transform="translate(921,274)"/>
<path d="M0 0 C-1.485 0.928 -1.485 0.928 -3 1.875 C-3.99 2.576 -4.98 3.277 -6 4 C-6 4.66 -6 5.32 -6 6 C-7.32 6 -8.64 6 -10 6 C-10.66 7.65 -11.32 9.3 -12 11 C-12.99 10.67 -13.98 10.34 -15 10 C-15 9.34 -15 8.68 -15 8 C-13.68 7.67 -12.36 7.34 -11 7 C-11 6.01 -11 5.02 -11 4 C-9.355 2.578 -9.355 2.578 -7.188 1.25 C-6.48 0.801 -5.772 0.353 -5.043 -0.109 C-3 -1 -3 -1 0 0 Z " fill="#7CD752" transform="translate(401,273)"/>
<path d="M0 0 C1 2 1 2 0.312 4.375 C-1 7 -1 7 -3 8.875 C-5.619 11.658 -6.152 14.326 -7 18 C-7.66 18 -8.32 18 -9 18 C-8.423 14.365 -7.455 11.625 -5.625 8.438 C-5.205 7.694 -4.785 6.95 -4.352 6.184 C-3.012 4.02 -1.559 2.01 0 0 Z " fill="#8EDF69" transform="translate(384,284)"/>
<path d="M0 0 C3.724 1.213 7.378 2.509 11 4 C10.67 4.99 10.34 5.98 10 7 C9.34 7 8.68 7 8 7 C8 6.34 8 5.68 8 5 C6.855 4.598 6.855 4.598 5.688 4.188 C3.126 3.056 1.803 2.088 0 0 Z " fill="#7DD655" transform="translate(401,339)"/>
<path d="M0 0 C2.062 1.75 2.062 1.75 4 4 C3.75 6.25 3.75 6.25 3 8 C2.34 8 1.68 8 1 8 C0.269 6.023 -0.394 4.019 -1 2 C-0.67 1.34 -0.34 0.68 0 0 Z " fill="#686868" transform="translate(921,274)"/>
<path d="M0 0 C0.33 0.66 0.66 1.32 1 2 C0.34 2 -0.32 2 -1 2 C-1.124 2.619 -1.248 3.238 -1.375 3.875 C-2 6 -2 6 -4 8 C-4.66 7.67 -5.32 7.34 -6 7 C-6 6.34 -6 5.68 -6 5 C-4.68 4.67 -3.36 4.34 -2 4 C-2 3.01 -2 2.02 -2 1 C-1.34 0.67 -0.68 0.34 0 0 Z " fill="#8DDE68" transform="translate(392,276)"/>
<path d="M0 0 C1.073 4.294 0.797 5.195 -1 9 C-1.66 9 -2.32 9 -3 9 C-2.01 6.03 -1.02 3.06 0 0 Z " fill="#86DA60" transform="translate(377,409)"/>
<path d="M0 0 C0.33 0 0.66 0 1 0 C1.188 2.875 1.188 2.875 1 6 C-0.485 6.99 -0.485 6.99 -2 8 C-1.125 2.25 -1.125 2.25 0 0 Z " fill="#86DD5D" transform="translate(320,323)"/>
<path d="M0 0 C0.99 0 1.98 0 3 0 C2.67 1.32 2.34 2.64 2 4 C1.34 4 0.68 4 0 4 C0 2.68 0 1.36 0 0 Z " fill="#81DC57" transform="translate(350,407)"/>
</svg>